<svg width="34" height="34" viewBox="0 0 34 34" fill="none" xmlns="http://www.w3.org/2000/svg">
<g clip-path="url(#clip0_153_559)">
<path d="M27.5343 12.24L34 5.7715L30.9981 2.76675L24.4942 9.27067L22.015 6.84817C21.3882 6.23716 20.5543 5.88461 19.6793 5.86072C18.8043 5.83683 17.9524 6.14335 17.2932 6.71925C14.8671 8.92106 12.0446 10.6417 8.976 11.7895L0 14.4217V16.0083C0.054204 20.8274 2.01789 25.4282 5.46018 28.8012C8.90248 32.1741 13.5422 34.0438 18.3614 34H20.2782L20.8264 33.6175C23.6832 31.7839 26.0526 29.2848 27.7317 26.3346C29.4107 23.3844 30.3493 20.071 30.4668 16.6784C30.4805 16.1954 30.3938 15.7147 30.2124 15.2668C30.031 14.8189 29.7588 14.4134 29.4128 14.076L27.5343 12.24ZM18.9267 29.75H18.36C17.0254 29.7506 15.6971 29.5661 14.4132 29.2018C16.2472 28.0249 17.8279 26.4938 19.0627 24.6982L19.7625 23.6683L16.2492 21.2783L15.5507 22.3054C14.3898 24.0001 12.8185 25.373 10.9834 26.2962L9.775 26.9025C8.91303 26.2549 8.12867 25.51 7.4375 24.6826C9.35425 23.8848 11.1025 22.7311 12.5899 21.2826L9.61492 18.2481C8.36303 19.4629 6.86559 20.3957 5.22325 20.9837C4.78169 19.8907 4.48682 18.7441 4.34633 17.5738L10.1717 15.8667C12.3476 15.1468 14.4087 14.1177 16.2917 12.8109L25.2535 21.5333C24.0124 24.8426 21.8088 27.7043 18.9267 29.75Z" fill="#291400"/>
</g>
<defs>
<clipPath id="clip0_153_559">
<rect width="34" height="34" fill="white"/>
</clipPath>
</defs>
</svg>
