<svg width="27" height="27" viewBox="0 0 27 27" fill="none" xmlns="http://www.w3.org/2000/svg">
<path d="M3.21429 0C1.44 0 0 1.44 0 3.21429V23.7857C0 25.56 1.44 27 3.21429 27H23.7857C25.56 27 27 25.56 27 23.7857V3.21429C27 1.44 25.56 0 23.7857 0H3.21429ZM13.5 4.5C18.8164 4.5 23.1429 7.94521 23.1429 12.1816C23.1429 13.8724 22.4738 15.4034 21.0724 16.9076C20.0631 18.0519 18.4246 19.3115 16.9139 20.353C15.4032 21.3815 14.0143 22.1912 13.5 22.4033C13.2943 22.4869 13.14 22.5251 13.0179 22.5251C12.5936 22.5251 12.6316 22.0762 12.6638 21.8898C12.6895 21.7484 12.8057 21.0787 12.8057 21.0787C12.8378 20.8408 12.8694 20.4627 12.773 20.2249C12.6637 19.9613 12.233 19.8259 11.918 19.7616C7.2894 19.1573 3.85714 15.9745 3.85714 12.1816C3.85714 7.94521 8.18357 4.5 13.5 4.5ZM12.8521 9.6416C12.5282 9.64761 12.2143 9.89478 12.2143 10.2857V14.1429C12.2143 14.4977 12.5023 14.7857 12.8571 14.7857C13.212 14.7857 13.5 14.4977 13.5 14.1429V12.2921L14.905 14.5158C15.2689 15.0249 16.0714 14.7684 16.0714 14.1429V10.2857C16.0714 9.93085 15.7834 9.64285 15.4286 9.64285C15.0737 9.64285 14.7857 9.93085 14.7857 10.2857V12.2143L13.3807 9.9128C13.2443 9.72187 13.0465 9.638 12.8521 9.6416ZM7.07143 9.64286C6.71657 9.64286 6.42857 9.93086 6.42857 10.2857V14.1429C6.42857 14.4977 6.71657 14.7857 7.07143 14.7857H9C9.35486 14.7857 9.64286 14.4977 9.64286 14.1429C9.64286 13.788 9.35486 13.5 9 13.5H7.71429V10.2857C7.71429 9.93086 7.42629 9.64286 7.07143 9.64286ZM10.9286 9.64286C10.5737 9.64286 10.2857 9.93086 10.2857 10.2857V14.1429C10.2857 14.4977 10.5737 14.7857 10.9286 14.7857C11.2834 14.7857 11.5714 14.4977 11.5714 14.1429V10.2857C11.5714 9.93086 11.2834 9.64286 10.9286 9.64286ZM17.3571 9.64286C17.0023 9.64286 16.7143 9.93086 16.7143 10.2857V14.1429C16.7143 14.4977 17.0023 14.7857 17.3571 14.7857H19.2857C19.6406 14.7857 19.9286 14.4977 19.9286 14.1429C19.9286 13.788 19.6406 13.5 19.2857 13.5H18V12.8571H19.2857C19.6412 12.8571 19.9286 12.5691 19.9286 12.2143C19.9286 11.8594 19.6412 11.5714 19.2857 11.5714H18V10.9286H19.2857C19.6406 10.9286 19.9286 10.6406 19.9286 10.2857C19.9286 9.93086 19.6406 9.64286 19.2857 9.64286H17.3571Z" fill="white"/>
</svg>
