<svg width="27" height="28" viewBox="0 0 27 28" fill="none" xmlns="http://www.w3.org/2000/svg">
<path d="M3.21429 0.5C1.44 0.5 0 1.94 0 3.71429V24.2857C0 26.06 1.44 27.5 3.21429 27.5H23.7857C25.56 27.5 27 26.06 27 24.2857V3.71429C27 1.94 25.56 0.5 23.7857 0.5H3.21429ZM13.5 5C18.8164 5 23.1429 8.44521 23.1429 12.6816C23.1429 14.3724 22.4738 15.9034 21.0724 17.4076C20.0631 18.5519 18.4246 19.8115 16.9139 20.853C15.4032 21.8815 14.0143 22.6912 13.5 22.9033C13.2943 22.9869 13.14 23.0251 13.0179 23.0251C12.5936 23.0251 12.6316 22.5762 12.6638 22.3898C12.6895 22.2484 12.8057 21.5787 12.8057 21.5787C12.8378 21.3408 12.8694 20.9627 12.773 20.7249C12.6637 20.4613 12.233 20.3259 11.918 20.2616C7.2894 19.6573 3.85714 16.4745 3.85714 12.6816C3.85714 8.44521 8.18357 5 13.5 5ZM12.8521 10.1416C12.5282 10.1476 12.2143 10.3948 12.2143 10.7857V14.6429C12.2143 14.9977 12.5023 15.2857 12.8571 15.2857C13.212 15.2857 13.5 14.9977 13.5 14.6429V12.7921L14.905 15.0158C15.2689 15.5249 16.0714 15.2684 16.0714 14.6429V10.7857C16.0714 10.4309 15.7834 10.1429 15.4286 10.1429C15.0737 10.1429 14.7857 10.4309 14.7857 10.7857V12.7143L13.3807 10.4128C13.2443 10.2219 13.0465 10.138 12.8521 10.1416ZM7.07143 10.1429C6.71657 10.1429 6.42857 10.4309 6.42857 10.7857V14.6429C6.42857 14.9977 6.71657 15.2857 7.07143 15.2857H9C9.35486 15.2857 9.64286 14.9977 9.64286 14.6429C9.64286 14.288 9.35486 14 9 14H7.71429V10.7857C7.71429 10.4309 7.42629 10.1429 7.07143 10.1429ZM10.9286 10.1429C10.5737 10.1429 10.2857 10.4309 10.2857 10.7857V14.6429C10.2857 14.9977 10.5737 15.2857 10.9286 15.2857C11.2834 15.2857 11.5714 14.9977 11.5714 14.6429V10.7857C11.5714 10.4309 11.2834 10.1429 10.9286 10.1429ZM17.3571 10.1429C17.0023 10.1429 16.7143 10.4309 16.7143 10.7857V14.6429C16.7143 14.9977 17.0023 15.2857 17.3571 15.2857H19.2857C19.6406 15.2857 19.9286 14.9977 19.9286 14.6429C19.9286 14.288 19.6406 14 19.2857 14H18V13.3571H19.2857C19.6412 13.3571 19.9286 13.0691 19.9286 12.7143C19.9286 12.3594 19.6412 12.0714 19.2857 12.0714H18V11.4286H19.2857C19.6406 11.4286 19.9286 11.1406 19.9286 10.7857C19.9286 10.4309 19.6406 10.1429 19.2857 10.1429H17.3571Z" fill="#0054A5"/>
</svg>
