<svg width="27" height="28" viewBox="0 0 27 28" fill="none" xmlns="http://www.w3.org/2000/svg">
<path d="M3.85714 0.5C1.72969 0.5 0 2.22969 0 4.35714V23.6429C0 25.7703 1.72969 27.5 3.85714 27.5H23.1429C25.2703 27.5 27 25.7703 27 23.6429V4.35714C27 2.22969 25.2703 0.5 23.1429 0.5H3.85714ZM9.32344 6.3279C9.90804 6.17121 10.5228 6.46652 10.7518 7.02701L11.9571 9.91987C12.1621 10.4141 12.0174 10.9806 11.6076 11.3181L10.125 12.5355C11.1254 14.6569 12.8431 16.3746 14.9645 17.375L16.1819 15.8864C16.5194 15.4766 17.0859 15.3319 17.5801 15.5368L20.473 16.7422C21.0335 16.9772 21.3288 17.5859 21.1721 18.1705L20.4489 20.8223C20.3042 21.3527 19.8281 21.7143 19.2857 21.7143C11.8306 21.7143 5.78571 15.6694 5.78571 8.21429C5.78571 7.67188 6.14732 7.19576 6.67165 7.05112L9.32344 6.3279Z" fill="#0054A5"/>
</svg>
